<?xml version="1.0" standalone="no"?>
<!DOCTYPE svg PUBLIC "-//W3C//DTD SVG 20010904//EN"
 "http://www.w3.org/TR/2001/REC-SVG-20010904/DTD/svg10.dtd">
<svg version="1.0" xmlns="http://www.w3.org/2000/svg"
 width="300.000000pt" height="300.000000pt" viewBox="0 0 300.000000 300.000000"
 preserveAspectRatio="xMidYMid meet">

<g transform="translate(0.000000,300.000000) scale(0.100000,-0.100000)"
fill="#000000" stroke="none">
<path d="M2119 2906 c-2 -3 -317 -30 -699 -61 -382 -32 -696 -59 -698 -60 -2
-1 -100 -574 -217 -1271 -118 -698 -217 -1281 -221 -1296 -8 -38 14 -43 221
-43 l180 0 214 -58 214 -57 705 110 c388 60 707 111 708 113 2 2 -68 507 -154
1123 -154 1085 -158 1121 -144 1169 24 82 -3 270 -44 316 -15 17 -54 26 -65
15z m13 -183 c9 -49 15 -89 13 -91 -2 -2 -1108 -116 -1210 -124 l-40 -3 -17
105 c-9 57 -16 105 -15 106 1 0 281 21 622 46 341 25 623 46 626 47 3 0 13
-38 21 -86z m-1376 -1202 c-21 -560 -39 -958 -45 -964 -16 -16 -335 -216 -339
-213 -2 2 90 507 205 1122 155 834 209 1104 211 1064 1 -30 -13 -484 -32
-1009z m1358 987 c13 -58 287 -2141 284 -2155 -3 -14 -95 -32 -578 -110 -316
-51 -587 -92 -602 -93 -22 0 -28 5 -28 23 0 12 -45 521 -100 1131 -55 610 -98
1111 -97 1113 3 3 1041 109 1094 112 16 1 24 -6 27 -21z m-1112 -1158 c54
-575 97 -1061 95 -1080 -2 -35 -2 -35 -149 130 l-148 165 0 75 c0 41 9 415 20
830 11 415 20 795 20 843 l0 88 32 -3 32 -3 98 -1045z m-103 -1021 c79 -88
140 -163 138 -166 -3 -3 -68 16 -144 41 l-138 46 -173 0 c-94 0 -172 3 -171 8
0 5 335 230 345 232 1 0 65 -72 143 -161z"/>
<path d="M1312 2045 l-47 -95 -43 57 c-64 88 -79 103 -96 103 -9 0 -16 -3 -16
-7 0 -5 30 -46 67 -92 61 -76 69 -91 78 -150 8 -46 16 -66 26 -66 11 0 13 13
11 61 -3 57 0 69 48 163 47 94 53 121 30 121 -6 0 -31 -43 -58 -95z"/>
<path d="M2021 2094 c-19 -14 -25 -14 -32 -3 -6 10 -11 11 -20 2 -8 -8 -8 -37
0 -114 6 -56 13 -105 16 -107 9 -9 35 8 31 20 -3 7 -7 42 -10 78 -6 77 6 100
59 109 20 3 37 11 38 16 3 17 -57 16 -82 -1z"/>
<path d="M1857 2083 c-4 -3 -4 -42 -1 -85 8 -95 -5 -118 -67 -118 -49 0 -67
25 -75 107 -7 69 -16 89 -34 78 -8 -5 -10 -27 -5 -79 12 -120 72 -169 157
-127 21 10 38 15 38 10 0 -11 27 -12 33 -1 3 4 0 54 -6 111 -11 96 -22 123
-40 104z"/>
<path d="M1424 2017 c-30 -27 -37 -41 -38 -74 -2 -76 44 -123 119 -123 87 0
143 78 111 154 -34 82 -127 102 -192 43z m137 -16 c19 -15 24 -29 24 -64 0
-59 -25 -87 -75 -87 -57 0 -85 28 -85 85 0 56 28 85 80 85 18 0 43 -9 56 -19z"/>
<path d="M1765 1512 c-27 -2 -53 -6 -57 -10 -9 -9 21 -304 33 -318 10 -13 118
-1 152 17 88 46 113 160 55 244 -38 57 -85 74 -183 67z m124 -51 c35 -19 54
-68 49 -127 -5 -60 -25 -89 -75 -110 -35 -15 -93 -19 -93 -6 -1 4 -7 61 -15
127 -7 66 -10 123 -7 127 19 19 96 13 141 -11z"/>
<path d="M1503 1478 c-19 -24 -104 -321 -94 -331 14 -14 29 0 36 32 9 41 21
48 101 56 l71 7 21 -36 c19 -32 52 -50 52 -27 0 12 -149 283 -164 299 -10 11
-15 11 -23 0z m62 -134 c20 -37 34 -69 31 -71 -2 -3 -33 -7 -67 -10 -58 -6
-62 -5 -55 13 4 10 14 45 23 77 9 31 20 57 24 57 4 0 24 -30 44 -66z"/>
<path d="M1505 810 c-4 -6 -3 -39 0 -74 l7 -64 -38 -6 c-22 -3 -67 -8 -100
-11 l-62 -7 -7 71 c-6 61 -10 71 -26 71 -10 0 -19 -4 -19 -9 0 -45 33 -308 40
-315 21 -21 29 7 23 78 l-6 73 78 6 c132 12 121 17 129 -64 6 -58 10 -70 24
-67 19 4 19 34 -1 217 -11 97 -24 129 -42 101z"/>
<path d="M2113 775 c-63 -27 -82 -115 -38 -175 32 -44 42 -50 88 -50 45 0 97
24 97 45 0 19 -19 19 -44 0 -30 -23 -74 -18 -101 10 -14 13 -25 28 -25 33 0 6
41 13 90 17 80 6 90 9 90 27 0 32 -29 77 -60 93 -35 18 -55 18 -97 0z m100
-43 c32 -28 20 -39 -49 -47 -36 -4 -68 -4 -71 -1 -10 10 20 58 41 66 25 9 56
2 79 -18z"/>
<path d="M1943 755 c-15 -11 -22 -12 -25 -3 -2 6 -12 9 -21 5 -15 -6 -17 -16
-11 -74 13 -133 19 -158 34 -158 12 0 14 16 11 92 l-3 91 30 16 c17 9 41 16
52 16 33 0 18 25 -16 28 -16 1 -39 -4 -51 -13z"/>
<path d="M1653 705 c-33 -33 -35 -39 -31 -86 6 -55 30 -89 80 -110 48 -20 143
19 123 51 -4 7 -14 5 -28 -5 -32 -23 -92 -19 -117 7 -34 37 -31 39 103 53 53
6 57 8 57 32 0 15 -13 38 -34 59 -28 28 -42 34 -76 34 -35 0 -48 -6 -77 -35z
m125 -11 c47 -32 26 -47 -80 -57 -45 -4 -50 14 -16 50 25 27 64 30 96 7z"/>
</g>
</svg>
